<svg width="31" height="30" viewBox="0 0 31 30" fill="none" xmlns="http://www.w3.org/2000/svg">
<path d="M4.89453 30H14.6797V19.3359H11.1641V15.8203H14.6797V11.4258C14.6797 9.00261 16.651 7.03125 19.0742 7.03125H23.4688V10.5469H19.9531C18.9838 10.5469 18.1953 11.3354 18.1953 12.3047V15.8203H23.3101L22.7242 19.3359H18.1953V30H26.1055C28.5286 30 30.5 28.0286 30.5 25.6055V4.39453C30.5 1.97136 28.5286 0 26.1055 0H4.89453C2.47136 0 0.5 1.97136 0.5 4.39453V25.6055C0.5 28.0286 2.47136 30 4.89453 30ZM2.25781 4.39453C2.25781 2.94067 3.44067 1.75781 4.89453 1.75781H26.1055C27.5593 1.75781 28.7422 2.94067 28.7422 4.39453V25.6055C28.7422 27.0593 27.5593 28.2422 26.1055 28.2422H19.9531V21.0938H24.2133L25.3852 14.0625H19.9531V12.3047H25.2266V5.27344H19.0742C15.6817 5.27344 12.9219 8.03329 12.9219 11.4258V14.0625H9.40625V21.0938H12.9219V28.2422H4.89453C3.44067 28.2422 2.25781 27.0593 2.25781 25.6055V4.39453Z" fill="white"/>
</svg>
