<svg width="31" height="30" viewBox="0 0 31 30" fill="none" xmlns="http://www.w3.org/2000/svg">
<g clip-path="url(#clip0_237_306)">
<path d="M21.7855 0H9.21453C4.40932 0 0.5 3.90932 0.5 8.71453V21.2855C0.5 26.0907 4.40932 30 9.21453 30H21.7855C23.1719 30 24.4978 29.6837 25.7265 29.0596C26.8972 28.4651 27.9365 27.5967 28.7319 26.5481C29.123 26.0325 29.0222 25.2974 28.5066 24.9062C27.9911 24.5151 27.256 24.6158 26.8647 25.1316C25.6474 26.736 23.7962 27.6562 21.7855 27.6562H9.21453C5.70166 27.6562 2.84375 24.7983 2.84375 21.2855V8.71453C2.84375 5.20166 5.70166 2.34375 9.21453 2.34375H21.7855C25.2983 2.34375 28.1562 5.20166 28.1562 8.71453V20.0977C28.1562 20.7449 28.6809 21.2695 29.3281 21.2695C29.9754 21.2695 30.5 20.7449 30.5 20.0977V8.71453C30.5 3.90932 26.5907 0 21.7855 0Z" fill="white"/>
<path d="M15.5 6.91406C11.0414 6.91406 7.41406 10.5414 7.41406 15C7.41406 19.4586 11.0414 23.0859 15.5 23.0859C19.9586 23.0859 23.5859 19.4586 23.5859 15C23.5859 10.5414 19.9586 6.91406 15.5 6.91406ZM15.5 20.7422C12.3338 20.7422 9.75781 18.1662 9.75781 15C9.75781 11.8338 12.3338 9.25781 15.5 9.25781C18.6662 9.25781 21.2422 11.8338 21.2422 15C21.2422 18.1662 18.6662 20.7422 15.5 20.7422Z" fill="white"/>
<path d="M23.7031 7.96875C24.3503 7.96875 24.875 7.44408 24.875 6.79688C24.875 6.14967 24.3503 5.625 23.7031 5.625C23.0559 5.625 22.5312 6.14967 22.5312 6.79688C22.5312 7.44408 23.0559 7.96875 23.7031 7.96875Z" fill="white"/>
</g>
<defs>
<clipPath id="clip0_237_306">
<rect width="30" height="30" fill="white" transform="translate(0.5)"/>
</clipPath>
</defs>
</svg>
