<svg width="235" height="27" viewBox="0 0 235 27" fill="none" xmlns="http://www.w3.org/2000/svg">
<path d="M10.5749 0H0V26.9994H10.5749V0Z" fill="url(#paint0_linear_179_212)"/>
<path d="M0.293335 13.3854L6.21528 5.24316L19.0931 26.9999H8.36158L0.293335 13.3854Z" fill="url(#paint1_linear_179_212)"/>
<path d="M0.293335 13.4433L5.70989 22.5431L19.0931 0H8.36158L0.293335 13.4433Z" fill="url(#paint2_linear_179_212)"/>
<path d="M29.3832 22.1314L29.3251 22.2363H18.9032L18.84 22.1269L17.6863 20.1501L12.3749 11.0642L17.6762 2.07983L22.956 11.1217L24.1085 13.0986L29.3832 22.1314Z" fill="url(#paint3_linear_179_212)"/>
<path d="M29.4464 0.00292969L22.9547 11.122L17.6749 2.08015L18.902 0.00292969H29.4464Z" fill="url(#paint4_linear_179_212)"/>
<path d="M29.3834 22.1313L29.3253 22.2361L28.8981 22.9646L26.5388 26.9995H15.9943L18.8402 22.1267L18.8667 22.0783L23.6234 13.9318L24.1086 13.0984L29.3834 22.1313Z" fill="url(#paint5_linear_179_212)"/>
<path d="M39.3983 23.5667V3.43595H42.2574V14.5663L53.8851 3.40942H56.9653L47.9095 12.2949L57.4738 23.5667H54.2647L46.1003 13.8269L42.2574 17.4034V23.5637H39.3983V23.5667Z" fill="white"/>
<path d="M69.0586 23.7068C67.4706 23.7068 66.0278 23.424 64.737 22.8554C63.4428 22.2897 62.3269 21.5178 61.386 20.5456C60.4418 19.5734 59.7188 18.4745 59.2103 17.2548C58.7019 16.0351 58.4477 14.786 58.4477 13.4986C58.4477 12.2111 58.7184 10.8765 59.2566 9.65683C59.798 8.43715 60.5507 7.35003 61.5114 6.39549C62.4722 5.44095 63.6013 4.6838 64.8954 4.12699C66.1863 3.57017 67.596 3.29028 69.1213 3.29028C70.6466 3.29028 72.1487 3.58491 73.4429 4.16824C74.7371 4.75451 75.8463 5.53817 76.7807 6.52217C77.7117 7.50617 78.4314 8.60212 78.9398 9.81297C79.4482 11.0238 79.7024 12.2612 79.7024 13.528C79.7024 14.8685 79.4383 16.1501 78.9068 17.3697C78.3785 18.5894 77.6291 19.6765 76.6651 20.6311C75.7011 21.5856 74.572 22.3369 73.2811 22.8848C71.9869 23.4328 70.5805 23.7068 69.0553 23.7068H69.0586ZM61.3365 13.4986C61.3365 14.5209 61.5214 15.5078 61.8911 16.4623C62.2609 17.4169 62.7858 18.2624 63.4626 18.9989C64.1394 19.7355 64.9582 20.3217 65.909 20.7578C66.8631 21.1938 67.9229 21.4088 69.0883 21.4088C70.2537 21.4088 71.3762 21.182 72.327 20.7283C73.2778 20.2746 74.09 19.6706 74.7569 18.9135C75.4238 18.1593 75.9322 17.3079 76.2821 16.3622C76.6321 15.4165 76.8071 14.4619 76.8071 13.4986C76.8071 12.4792 76.6222 11.4952 76.2524 10.5495C75.8827 9.6038 75.3511 8.75827 74.6644 8.0129C73.9744 7.26754 73.159 6.68125 72.218 6.25407C71.2738 5.82983 70.2306 5.61771 69.0883 5.61771C67.8799 5.61771 66.8004 5.84162 65.8462 6.28354C64.8921 6.72545 64.0833 7.32646 63.4164 8.08361C62.7495 8.84075 62.2345 9.68628 61.8746 10.6202C61.5147 11.5571 61.3365 12.5175 61.3365 13.4986Z" fill="white"/>
<path d="M98.976 7.65861C98.7217 7.39346 98.3817 7.13716 97.9591 6.89263C97.5332 6.64811 97.0578 6.4242 96.5296 6.22681C95.998 6.02942 95.4236 5.86738 94.7963 5.74659C94.169 5.6258 93.5187 5.56099 92.8419 5.56099C91.1053 5.56099 89.8243 5.85559 88.9957 6.43892C88.1703 7.02225 87.7576 7.8236 87.7576 8.84295C87.7576 9.55886 87.9689 10.1245 88.3915 10.537C88.8141 10.9524 89.4645 11.2912 90.346 11.5563C91.2242 11.8215 92.34 12.0925 93.6969 12.3753C95.2618 12.6758 96.6187 13.0441 97.7643 13.4772C98.9099 13.9103 99.7881 14.4906 100.402 15.2154C101.016 15.9401 101.323 16.9064 101.323 18.1114C101.323 19.0748 101.119 19.9056 100.706 20.6127C100.293 21.3197 99.7155 21.903 98.9727 22.3656C98.2298 22.8281 97.3616 23.1669 96.3678 23.382C95.3708 23.5971 94.2912 23.7061 93.1258 23.7061C91.9604 23.7061 90.8643 23.597 89.7748 23.379C88.6853 23.161 87.652 22.8458 86.6781 22.4304C85.7041 22.015 84.7929 21.4935 83.9445 20.869L85.3113 18.7154C85.648 19.0365 86.0904 19.3547 86.6285 19.667C87.17 19.9792 87.784 20.268 88.4707 20.5302C89.1607 20.7953 89.9069 21.0074 90.7124 21.1665C91.518 21.3286 92.3433 21.4081 93.1918 21.4081C94.8029 21.4081 96.0509 21.1489 96.9423 20.6333C97.8304 20.1177 98.2761 19.3606 98.2761 18.3618C98.2761 17.6076 98.0251 17.0037 97.5299 16.5529C97.0314 16.0992 96.2952 15.7251 95.3213 15.4216C94.3473 15.1211 93.1588 14.8177 91.7623 14.5172C90.237 14.1784 88.9561 13.8071 87.9161 13.4006C86.8761 12.997 86.1003 12.4637 85.582 11.8038C85.0636 11.1439 84.8061 10.2865 84.8061 9.23184C84.8061 7.95029 85.1561 6.86611 85.8527 5.97933C86.5526 5.09255 87.5166 4.42378 88.7448 3.97008C89.9729 3.51638 91.3595 3.29248 92.9079 3.29248C93.9247 3.29248 94.8723 3.38676 95.7504 3.57531C96.6286 3.76386 97.4507 4.02901 98.2133 4.36782C98.976 4.70957 99.6759 5.11613 100.31 5.58751L98.976 7.65861Z" fill="white"/>
<path d="M120.709 7.65861C120.455 7.39346 120.115 7.13716 119.692 6.89263C119.266 6.64811 118.791 6.4242 118.262 6.22681C117.731 6.02942 117.156 5.86738 116.529 5.74659C115.902 5.6258 115.252 5.56099 114.575 5.56099C112.838 5.56099 111.557 5.85559 110.729 6.43892C109.903 7.02225 109.49 7.8236 109.49 8.84295C109.49 9.55886 109.702 10.1245 110.124 10.537C110.547 10.9524 111.197 11.2912 112.079 11.5563C112.957 11.8215 114.073 12.0925 115.43 12.3753C116.995 12.6758 118.352 13.0441 119.497 13.4772C120.643 13.9103 121.521 14.4906 122.135 15.2154C122.749 15.9401 123.056 16.9064 123.056 18.1114C123.056 19.0748 122.851 19.9056 122.439 20.6127C122.026 21.3197 121.448 21.903 120.706 22.3656C119.963 22.8281 119.094 23.1669 118.101 23.382C117.104 23.5971 116.024 23.7061 114.859 23.7061C113.693 23.7061 112.597 23.597 111.508 23.379C110.418 23.161 109.385 22.8458 108.411 22.4304C107.437 22.015 106.526 21.4935 105.677 20.869L107.044 18.7154C107.381 19.0365 107.823 19.3547 108.361 19.667C108.903 19.9792 109.517 20.268 110.204 20.5302C110.894 20.7953 111.64 21.0074 112.445 21.1665C113.251 21.3286 114.076 21.4081 114.925 21.4081C116.536 21.4081 117.784 21.1489 118.675 20.6333C119.563 20.1177 120.009 19.3606 120.009 18.3618C120.009 17.6076 119.758 17.0037 119.263 16.5529C118.764 16.0992 118.028 15.7251 117.054 15.4216C116.08 15.1211 114.892 14.8177 113.495 14.5172C111.97 14.1784 110.689 13.8071 109.649 13.4006C108.609 12.997 107.833 12.4637 107.315 11.8038C106.796 11.1439 106.539 10.2865 106.539 9.23184C106.539 7.95029 106.889 6.86611 107.586 5.97933C108.285 5.09255 109.249 4.42378 110.478 3.97008C111.706 3.51638 113.092 3.29248 114.641 3.29248C115.658 3.29248 116.605 3.38676 117.483 3.57531C118.361 3.76386 119.184 4.02901 119.946 4.36782C120.709 4.70957 121.409 5.11613 122.043 5.58751L120.709 7.65861Z" fill="white"/>
<path d="M135.61 3.43555H138.023L147.237 23.5663H144.187L141.658 17.6682H131.955L129.413 23.5663H126.362L135.606 3.43555H135.61ZM140.809 15.6854L136.818 6.38459L132.81 15.6854H140.809Z" fill="white"/>
<path d="M165.573 7.65861C165.319 7.39346 164.979 7.13716 164.556 6.89263C164.131 6.64811 163.655 6.4242 163.127 6.22681C162.595 6.02942 162.021 5.86738 161.394 5.74659C160.766 5.6258 160.116 5.56099 159.439 5.56099C157.703 5.56099 156.422 5.85559 155.593 6.43892C154.768 7.02225 154.355 7.8236 154.355 8.84295C154.355 9.55886 154.566 10.1245 154.989 10.537C155.411 10.9524 156.062 11.2912 156.943 11.5563C157.822 11.8215 158.937 12.0925 160.294 12.3753C161.859 12.6758 163.216 13.0441 164.362 13.4772C165.507 13.9103 166.385 14.4906 167 15.2154C167.614 15.9401 167.921 16.9064 167.921 18.1114C167.921 19.0748 167.716 19.9056 167.303 20.6127C166.891 21.3197 166.313 21.903 165.57 22.3656C164.827 22.8281 163.959 23.1669 162.965 23.382C161.968 23.5971 160.889 23.7061 159.723 23.7061C158.558 23.7061 157.462 23.597 156.372 23.379C155.283 23.161 154.249 22.8458 153.275 22.4304C152.301 22.015 151.39 21.4935 150.542 20.869L151.909 18.7154C152.245 19.0365 152.688 19.3547 153.226 19.667C153.767 19.9792 154.381 20.268 155.068 20.5302C155.758 20.7953 156.504 21.0074 157.31 21.1665C158.115 21.3286 158.941 21.4081 159.789 21.4081C161.4 21.4081 162.648 21.1489 163.54 20.6333C164.428 20.1177 164.873 19.3606 164.873 18.3618C164.873 17.6076 164.623 17.0037 164.127 16.5529C163.629 16.0992 162.893 15.7251 161.919 15.4216C160.945 15.1211 159.756 14.8177 158.36 14.5172C156.834 14.1784 155.553 13.8071 154.513 13.4006C153.474 12.997 152.698 12.4637 152.179 11.8038C151.661 11.1439 151.403 10.2865 151.403 9.23184C151.403 7.95029 151.753 6.86611 152.45 5.97933C153.15 5.09255 154.114 4.42378 155.342 3.97008C156.57 3.51638 157.957 3.29248 159.505 3.29248C160.522 3.29248 161.47 3.38676 162.348 3.57531C163.226 3.76386 164.048 4.02901 164.811 4.36782C165.573 4.70957 166.273 5.11613 166.907 5.58751L165.573 7.65861Z" fill="white"/>
<path d="M182.216 23.7068C180.628 23.7068 179.185 23.424 177.894 22.8554C176.6 22.2897 175.484 21.5178 174.543 20.5456C173.599 19.5734 172.876 18.4745 172.367 17.2548C171.859 16.0351 171.605 14.786 171.605 13.4986C171.605 12.2111 171.875 10.8765 172.414 9.65683C172.955 8.43715 173.708 7.35003 174.668 6.39549C175.633 5.44095 176.758 4.6838 178.052 4.12699C179.343 3.57017 180.753 3.29028 182.278 3.29028C183.804 3.29028 185.306 3.58491 186.6 4.16824C187.894 4.75451 189.003 5.53817 189.938 6.52217C190.869 7.50617 191.588 8.60212 192.097 9.81297C192.605 11.0238 192.859 12.2612 192.859 13.528C192.859 14.8685 192.595 16.1501 192.064 17.3697C191.536 18.5894 190.786 19.6765 189.822 20.6311C188.858 21.5856 187.729 22.3369 186.438 22.8848C185.144 23.4328 183.738 23.7068 182.212 23.7068H182.216ZM174.494 13.4986C174.494 14.5209 174.678 15.5078 175.048 16.4623C175.418 17.4169 175.943 18.2624 176.62 18.9989C177.296 19.7355 178.115 20.3217 179.066 20.7578C180.02 21.1938 181.08 21.4088 182.245 21.4088C183.411 21.4088 184.533 21.182 185.484 20.7283C186.435 20.2746 187.247 19.6706 187.914 18.9135C188.581 18.1593 189.089 17.3079 189.439 16.3622C189.789 15.4165 189.964 14.4619 189.964 13.4986C189.964 12.4792 189.779 11.4952 189.409 10.5495C189.04 9.6038 188.508 8.75827 187.821 8.0129C187.131 7.26754 186.316 6.68125 185.375 6.25407C184.431 5.82983 183.388 5.61771 182.245 5.61771C181.037 5.61771 179.957 5.84162 179.003 6.28354C178.049 6.72545 177.24 7.32646 176.573 8.08361C175.907 8.84075 175.392 9.68628 175.032 10.6202C174.672 11.5571 174.494 12.5175 174.494 13.4986Z" fill="white"/>
<path d="M198.224 23.5663V3.43555H213.127V5.70404H201.087V12.4241H211.222V14.5512H201.087V23.5663H198.228H198.224Z" fill="white"/>
<path d="M234.408 5.70404H226.623V23.5663H223.764V5.70404H215.979V3.43555H234.408V5.70404Z" fill="white"/>
<defs>
<linearGradient id="paint0_linear_179_212" x1="5.28806" y1="-1.94737" x2="5.28806" y2="27.4459" gradientUnits="userSpaceOnUse">
<stop stop-color="#10B4E9"/>
<stop offset="1" stop-color="#20315C"/>
</linearGradient>
<linearGradient id="paint1_linear_179_212" x1="19.6936" y1="24.4285" x2="10.5962" y2="16.5647" gradientUnits="userSpaceOnUse">
<stop stop-color="#10B4E9"/>
<stop offset="1" stop-color="#20315C"/>
</linearGradient>
<linearGradient id="paint2_linear_179_212" x1="19.0918" y1="11.2721" x2="0.293335" y2="11.2721" gradientUnits="userSpaceOnUse">
<stop stop-color="#10B4E9"/>
<stop offset="1" stop-color="#20315C"/>
</linearGradient>
<linearGradient id="paint3_linear_179_212" x1="26.4716" y1="19.4588" x2="15.2293" y2="6.86046" gradientUnits="userSpaceOnUse">
<stop stop-color="#10B4E9"/>
<stop offset="1" stop-color="#20315C"/>
</linearGradient>
<linearGradient id="paint4_linear_179_212" x1="29.8635" y1="5.56248" x2="15.912" y2="5.56248" gradientUnits="userSpaceOnUse">
<stop stop-color="#10B4E9"/>
<stop offset="1" stop-color="#20315C"/>
</linearGradient>
<linearGradient id="paint5_linear_179_212" x1="31.9689" y1="20.0495" x2="14.7028" y2="20.0495" gradientUnits="userSpaceOnUse">
<stop stop-color="#10B4E9"/>
<stop offset="1" stop-color="#20315C"/>
</linearGradient>
</defs>
</svg>
