<svg width="39" height="28" viewBox="0 0 39 28" fill="none" xmlns="http://www.w3.org/2000/svg">
<g clip-path="url(#clip0_237_301)">
<path d="M30.9433 0H8.05663C3.88981 0 0.5 3.41042 0.5 7.60233V20.3977C0.5 24.5896 3.88981 28 8.05663 28H30.9433C35.1101 28 38.5 24.5896 38.5 20.3977V7.60233C38.5 3.41042 35.1101 0 30.9433 0ZM36.949 20.3977C36.949 23.7317 34.2548 26.4444 30.9433 26.4444H8.05663C4.7452 26.4444 2.05102 23.7317 2.05102 20.3977V7.60233C2.05102 4.26831 4.7452 1.55556 8.05663 1.55556H30.9433C34.2548 1.55556 36.949 4.26831 36.949 7.60233V20.3977Z" fill="white"/>
<path d="M26.3713 13.7186L15.6266 7.40671C15.3881 7.26663 15.0904 7.26429 14.8492 7.40297C14.608 7.54157 14.4592 7.79902 14.4592 8.07777V20.7C14.4592 20.9788 14.608 21.2362 14.8488 21.3748C14.9684 21.4436 15.1018 21.4778 15.2347 21.4778C15.3702 21.4778 15.5054 21.4421 15.6266 21.3711L26.3713 15.0607C26.6087 14.9214 26.7549 14.6658 26.7549 14.3897C26.7549 14.1135 26.6091 13.858 26.3713 13.7186ZM16.0102 19.343V9.43476L24.4447 14.3897L16.0102 19.343Z" fill="white"/>
</g>
<defs>
<clipPath id="clip0_237_301">
<rect width="38" height="28" fill="white" transform="translate(0.5)"/>
</clipPath>
</defs>
</svg>
